<svg width="144" height="28" viewBox="0 0 144 28" fill="none" xmlns="http://www.w3.org/2000/svg">
<path d="M29.4966 1.96424L16.2231 2.02608L14.7944 8.01615H18.5229V17.4887L24.5748 17.39L24.5182 8.01615H28.002L29.4966 1.96424ZM15.8508 1.0433L30.6188 0.973572L28.6532 8.93709H25.4957L25.5523 18.2781L17.6019 18.407V8.93709H13.6169L15.4996 1.0433H15.8521H15.8508Z" fill="white"/>
<path d="M20.295 24.3063C22.1843 23.088 23.6367 21.4422 24.3037 19.5937L18.2295 19.6779C15.4943 21.8553 12.7459 21.8697 10.6264 20.758C9.34896 20.0884 8.30435 19.0056 7.6347 17.7413C6.96241 16.4717 6.66376 15.014 6.87952 13.5984C7.22422 11.3223 8.87534 9.16864 12.4012 8.09772L13.8761 2.09581H13.213C12.7788 2.09712 12.3815 2.09844 12.3091 2.10107C10.8238 2.14712 9.2845 2.5497 7.83336 3.25751C5.90464 4.19819 4.1417 5.67696 2.88395 7.57804C1.62752 9.47518 0.872352 11.796 0.953921 14.4233C1.12495 19.8937 4.45087 24.6405 9.85811 26.0587C11.6868 26.5389 13.5735 26.5665 15.3653 26.2416C17.1572 25.9166 18.8531 25.2378 20.2976 24.3063M25.4049 19.2753C24.7945 21.604 23.0881 23.6722 20.8068 25.143C19.2622 26.139 17.448 26.8639 15.5285 27.2125C13.609 27.5599 11.5829 27.5296 9.61735 27.0139C3.6957 25.4601 0.190855 20.3831 0.00666669 14.4917C-0.0827962 11.6526 0.734211 9.14496 2.09194 7.09521C3.44836 5.04677 5.34418 3.45617 7.4163 2.44445C8.9819 1.68138 10.6554 1.24723 12.2776 1.17487H12.2789C12.346 1.19328 12.7591 1.19197 13.2103 1.19197C13.7734 1.19065 14.397 1.19197 14.4812 1.30643H15.072L13.1827 8.89104L12.9183 8.96472C9.63051 9.88829 8.10964 11.7841 7.80704 13.7773C7.62286 14.9903 7.88335 16.2454 8.46354 17.3427C9.04768 18.4452 9.95284 19.3871 11.058 19.966C12.9038 20.933 15.3259 20.887 17.7611 18.8872L17.8887 18.7833C20.4463 18.7464 23.0026 18.7122 25.5602 18.678L25.4036 19.2753H25.4049Z" fill="white"/>
<path d="M135.875 23.3814C135.263 23.3814 134.879 23.042 134.879 22.5671C134.879 22.0474 135.331 21.2317 136.735 21.2317C137.278 21.2317 137.685 21.2317 138.093 21.2541L138.047 21.5711C137.685 22.771 136.757 23.3814 135.875 23.3814ZM138.032 13.751C135.905 13.751 133.779 14.2944 132.058 15.0864L132.985 18.6162C133.958 18.1636 135.452 17.8018 136.719 17.8018C138.483 17.8018 138.643 18.6846 138.507 19.3175V19.3398C137.67 19.2938 136.515 19.249 135.769 19.249C130.678 19.249 129.479 21.829 129.479 23.7748C129.479 25.7206 130.928 27.1468 133.258 27.1468C134.933 27.1468 136.313 26.3995 137.263 25.2694L136.923 26.831H142.309L143.803 19.7937C144.504 16.6033 143.508 13.7523 138.032 13.7523M127.551 26.8297L130.27 14.0681H124.852L122.131 26.8297H127.549H127.551ZM130.517 13.1471L131.22 9.85807H125.663L124.936 13.1471H130.516H130.517ZM118.39 13.7287C116.894 13.7287 115.398 14.4772 114.219 15.6784L114.559 14.0694H109.141L106.422 26.831H111.839L113.2 20.4621C113.448 19.2148 114.401 18.3307 115.443 18.3307C116.349 18.3307 116.735 18.8754 116.486 20.0542L115.035 26.831H120.453L122.108 18.9885C122.834 15.589 121.451 13.73 118.391 13.73M98.7422 22.6578C97.7463 22.6578 96.9542 22.0013 96.9542 20.7568C96.9542 19.1951 97.8818 18.1097 99.2171 18.1097C100.213 18.1097 101.005 18.7886 101.005 20.0108C101.005 21.233 100.258 22.6578 98.7422 22.6578ZM99.9644 13.6971C95.0545 13.6971 91.4115 17.1822 91.4115 21.3462C91.4115 24.876 93.8099 27.0928 97.9962 27.0928C102.884 27.0928 106.549 23.5854 106.549 19.399C106.549 15.8692 104.128 13.6971 99.9644 13.6971ZM101.298 13.1971L105.101 13.0156L103.426 9.46338H98.9461L95.7557 13.0156L99.6934 13.1971L100.916 11.3184L101.3 13.1971H101.298ZM91.276 18.1465L92.1469 14.0681H88.5224L89.1499 11.0421H84.2597L83.3401 14.0681H81.2588L80.4115 18.1465H82.2442L81.3732 22.1329C80.7772 25.0654 81.7403 27.2876 85.6622 27.2876C86.8989 27.2876 88.5263 26.9902 89.9472 26.3021L89.8327 22.3158C88.9539 22.6131 88.2895 22.7276 87.7172 22.7276C86.916 22.7276 86.8462 22.2237 86.9607 21.6277L87.6935 18.1452H91.276V18.1465ZM73.311 20.4371C73.0611 21.683 72.1099 22.5684 71.0666 22.5684C70.1601 22.5684 69.7746 22.0237 70.0233 20.8449L71.4744 14.0681H66.0566L64.4016 21.9106C63.6753 25.3102 65.0581 27.1691 68.1196 27.1691C69.6154 27.1691 71.1113 26.4206 72.2901 25.2194L71.9494 26.8284H77.3671L80.0878 14.0668H74.6701L73.3097 20.4357L73.311 20.4371ZM55.0737 19.4622C55.4132 18.5123 56.1144 17.6966 57.2459 17.6966C58.2181 17.6966 58.6483 18.1715 58.6483 19.2359V19.4622H55.0737ZM63.103 21.5672C63.6004 20.6173 63.8727 19.4859 63.8727 18.557C63.8727 15.7968 61.7677 13.7602 57.9208 13.7602C52.9424 13.7602 49.5481 17.2217 49.5481 21.4093C49.5481 24.9615 51.9689 27.156 55.9513 27.156C58.3273 27.156 60.2731 26.3416 61.9032 24.7129L59.4824 22.0882C58.7128 22.7894 57.83 23.1973 56.813 23.1973C55.796 23.1973 55.0698 22.6776 54.8896 21.5685H63.1044L63.103 21.5672ZM37.4561 10.9106L36.4391 15.6468H41.132L38.7599 26.8297H44.4079L46.78 15.6468H51.5018L52.4951 10.9106H37.4548H37.4561Z" fill="white"/>
<path d="M80.3194 7.77143C80.7562 7.77143 81.1561 7.6675 81.5192 7.457C81.8823 7.24781 82.1823 6.96495 82.4191 6.60842C82.6559 6.25188 82.8151 5.8664 82.8941 5.45461C82.9743 5.01782 82.9572 4.62181 82.8428 4.26791C82.7283 3.914 82.527 3.63377 82.2389 3.42853C81.9494 3.22198 81.5837 3.11936 81.1403 3.11936C80.7285 3.11936 80.3404 3.22856 79.9773 3.44695C79.6142 3.66535 79.3116 3.95347 79.0682 4.31001C78.8248 4.66654 78.6669 5.04808 78.5933 5.45461C78.5012 5.90982 78.5117 6.31108 78.6262 6.65973C78.7406 7.00837 78.9432 7.27939 79.2353 7.47673C79.5274 7.67408 79.8892 7.77143 80.3194 7.77143ZM80.1536 8.74105C79.5195 8.74105 78.9801 8.59633 78.5341 8.3069C78.0881 8.01746 77.7736 7.62408 77.5921 7.12546C77.4105 6.62683 77.375 6.07032 77.4855 5.45461C77.5908 4.86389 77.8223 4.31659 78.1828 3.81138C78.5433 3.3075 78.9985 2.9036 79.5484 2.60232C80.0997 2.30104 80.6943 2.14974 81.335 2.14974C81.9757 2.14974 82.5152 2.29315 82.9546 2.57864C83.394 2.86544 83.7058 3.25882 83.8874 3.76007C84.0689 4.26133 84.1071 4.82705 84.0031 5.45461C83.8926 6.05717 83.6532 6.60973 83.2874 7.11099C82.9217 7.61224 82.4639 8.00956 81.9165 8.30163C81.3692 8.5937 80.7812 8.73974 80.1536 8.73974M75.0805 2.0958H76.1475L75.1266 8.54239H74.0596L75.0805 2.0958ZM69.4759 5.38488H72.5624L72.4835 5.90192L71.8178 6.17426H69.3536L69.4759 5.38488ZM68.9168 8.78315C68.28 8.78315 67.7419 8.6358 67.2999 8.34242C66.8578 8.04903 66.5447 7.64776 66.3592 7.1373C66.1737 6.62815 66.1369 6.06374 66.2487 5.44671C66.3474 4.86652 66.5789 4.32448 66.9433 3.82059C67.3078 3.31671 67.7669 2.91544 68.3195 2.61547C68.8721 2.31551 69.4667 2.16684 70.1035 2.16684C70.6837 2.16684 71.1665 2.29051 71.5494 2.53785C71.9322 2.78519 72.2151 3.09568 72.3966 3.46932C72.5795 3.84296 72.6637 4.21791 72.6519 4.5955H71.5678C71.5612 4.36132 71.4994 4.1324 71.3823 3.91006C71.2652 3.68771 71.081 3.50353 70.831 3.35881C70.5811 3.21409 70.2706 3.14041 69.8996 3.14041C69.4799 3.14041 69.0905 3.24303 68.7313 3.44695C68.3734 3.65088 68.0748 3.92716 67.8367 4.2758C67.5985 4.62444 67.4367 5.01519 67.3499 5.44803C67.263 5.90587 67.2775 6.3124 67.392 6.67157C67.5064 7.02942 67.7104 7.30965 68.0037 7.50962C68.2971 7.71092 68.6563 7.8109 69.0826 7.8109C69.4404 7.8109 69.7851 7.73065 70.1153 7.57014C70.4456 7.40964 70.7337 7.18598 70.9771 6.89917C71.2218 6.61236 71.3954 6.28345 71.5007 5.91245L72.5756 5.92166C72.4519 6.4216 72.219 6.88996 71.8756 7.32544C71.5336 7.76091 71.1086 8.1135 70.6021 8.38189C70.0956 8.65028 69.5338 8.78447 68.9155 8.78447M61.4729 1.27353L63.799 0L64.2147 0.914364L61.7598 1.89319L61.4729 1.27485V1.27353ZM60.7007 2.0958H64.9804L64.8344 3.01674H61.6124L61.3164 4.85863H64.1674L63.995 5.91113H61.1677L60.8941 7.62145H64.166L64.024 8.54239H59.6811L60.702 2.0958H60.7007ZM54.8237 2.22736H55.8986L55.0382 7.62145H58.2983L58.1589 8.54239H53.8239L54.8237 2.22736ZM48.7705 7.77143C49.2073 7.77143 49.6073 7.6675 49.9704 7.457C50.3335 7.24781 50.6335 6.96495 50.8703 6.60842C51.1071 6.25188 51.2663 5.8664 51.3452 5.45461C51.4255 5.01782 51.4084 4.62181 51.2939 4.26791C51.1795 3.914 50.9782 3.63377 50.6887 3.42853C50.3993 3.22198 50.0335 3.11936 49.5902 3.11936C49.1784 3.11936 48.7903 3.22856 48.4271 3.44695C48.064 3.66535 47.7614 3.95347 47.518 4.31001C47.2747 4.66654 47.1168 5.04808 47.0431 5.45461C46.951 5.90982 46.9615 6.31108 47.0747 6.65973C47.1891 7.00705 47.3917 7.27939 47.6838 7.47673C47.9759 7.67408 48.3377 7.77143 48.7679 7.77143M48.6048 8.74105C47.9706 8.74105 47.4312 8.59633 46.9852 8.3069C46.5392 8.01746 46.2261 7.62408 46.0432 7.12546C45.8617 6.62683 45.8261 6.07032 45.9367 5.45461C46.0406 4.86389 46.2735 4.31659 46.6339 3.81138C46.9931 3.3075 47.4496 2.9036 47.9996 2.60232C48.5508 2.30104 49.1455 2.14974 49.7862 2.14974C50.4269 2.14974 50.9663 2.29315 51.4057 2.57864C51.8465 2.86544 52.157 3.25882 52.3385 3.76007C52.5201 4.26133 52.5582 4.82705 52.4543 5.45461C52.3438 6.05717 52.1043 6.60973 51.7386 7.11099C51.3729 7.61224 50.915 8.00956 50.3677 8.30163C49.8204 8.5937 49.2323 8.73974 48.6048 8.73974M40.9307 8.89104C40.3071 8.89104 39.7795 8.73974 39.3427 8.43846C38.9072 8.13718 38.6007 7.7267 38.4231 7.20834C38.2455 6.68999 38.2139 6.12032 38.3284 5.49671C38.4362 4.8731 38.6704 4.30211 39.0296 3.78112C39.3888 3.26013 39.8413 2.84703 40.3886 2.5418C40.9359 2.23657 41.5201 2.08396 42.1437 2.08396C42.7278 2.08396 43.2199 2.22079 43.6172 2.49312C44.0145 2.76677 44.2961 3.11805 44.4605 3.54694C44.6263 3.97584 44.6697 4.41263 44.5934 4.85731H43.5159C43.5475 4.52051 43.5093 4.21923 43.4014 3.95216C43.2936 3.68508 43.1159 3.47327 42.8673 3.31802C42.6186 3.16146 42.3108 3.08384 41.9424 3.08384C41.5359 3.08384 41.157 3.19567 40.8083 3.41801C40.4584 3.64035 40.1676 3.93637 39.9361 4.30475C39.7045 4.67312 39.5466 5.06781 39.4638 5.4875C39.369 5.96376 39.373 6.38213 39.4782 6.74129C39.5835 7.10046 39.7756 7.38201 40.0545 7.58461C40.3347 7.78722 40.6873 7.88984 41.1122 7.88984C41.4359 7.88984 41.7451 7.81617 42.0371 7.67013C42.3292 7.5241 42.5818 7.32017 42.7949 7.05968C43.0081 6.79918 43.162 6.50317 43.258 6.17294H44.3737C44.2724 6.61105 44.0645 7.03863 43.7488 7.45568C43.4343 7.87142 43.0357 8.2148 42.5515 8.48582C42.0687 8.75684 41.528 8.89104 40.9307 8.89104Z" fill="white"/>
</svg>
